Coordinates
version=1
nRows=8
nColumns=34
inDegrees=yes

Units are S.I. units (second, meters, Newtons, ...)
If the header above contains a line with 'inDegrees', this indicates whether rotational values are in degrees (yes) or radians (no).

endheader
time	pelvis_tilt	pelvis_list	pelvis_rotation	pelvis_tx	pelvis_ty	pelvis_tz	hip_flexion_r	hip_adduction_r	hip_rotation_r	knee_angle_r	ankle_angle_r	subtalar_angle_r	mtp_angle_r	hip_flexion_l	hip_adduction_l	hip_rotation_l	knee_angle_l	ankle_angle_l	subtalar_angle_l	mtp_angle_l	lumbar_extension	lumbar_bending	lumbar_rotation	arm_flex_r	arm_add_r	arm_rot_r	elbow_flex_r	pro_sup_r	arm_flex_l	arm_add_l	arm_rot_l	elbow_flex_l	pro_sup_l
      8.90000000	     10.42288766	     10.48995345	     -0.96535488	      0.53432908	      0.88378701	      0.01085449	      5.91158046	     -0.93778205	      3.07726063	     37.05116022	     15.30154627	    -21.40529859	      0.00000000	     47.82770224	      4.79421923	    -16.65657953	      1.39070002	     -8.59472361	      5.49815278	      0.00000000	    -29.85065404	     -5.27960649	     -1.96977964	     79.68747038	     -3.94581757	     67.94900717	    104.86918150	     96.12432065	     75.09990908	      0.89341904	     72.85175113	    116.27604172	     80.57640630
      8.91666670	     10.83167652	     10.22050586	     -1.52432457	      0.53614840	      0.87813336	      0.01094995	      6.54122956	     -0.51481739	      3.60538794	     39.33535092	     16.72586787	    -21.75874362	      0.00000000	     47.07025348	      4.54899731	    -16.50494109	      1.49582840	     -8.20704265	      5.12748393	      0.00000000	    -29.82378083	     -5.02724233	     -2.12130856	     79.74297637	     -2.98179759	     68.06409457	    102.49505046	     96.13282909	     75.15805538	     -0.45463883	     72.19188287	    115.74408318	     80.90763813
      8.93333330	     11.15662543	      9.82967490	     -1.79874053	      0.53374579	      0.87336293	      0.01265735	      7.54686062	      0.18151589	      3.90889036	     41.77743839	     17.89355577	    -22.28939366	      0.00000000	     46.30307268	      4.34047702	    -16.11941924	      1.93044410	     -7.81696909	      5.08568168	      0.00000000	    -30.20264906	     -4.64383964	     -2.17920895	     79.84124661	     -3.05123578	     67.96367102	    101.78397972	     96.12527391	     75.54785313	     -0.42731634	     72.15775197	    115.83594386	     81.02630511
      8.95000000	     11.31263998	      9.76682116	     -1.75354137	      0.53526673	      0.86493796	      0.01133552	      8.70997292	      0.25304405	      3.73993788	     44.50147088	     19.03012958	    -22.37063769	      0.00000000	     45.88999360	      4.55404633	    -15.81252025	      2.66582399	     -7.27980007	      4.74626277	      0.00000000	    -30.18162996	     -4.30531779	     -2.29157011	     79.87103883	     -2.80318746	     68.09200720	    100.56127116	     96.06158666	     76.14895789	     -0.30280826	     72.88992963	    116.15643809	     81.39802459
      8.96666670	     11.39044390	      9.55764031	     -1.77902218	      0.53100901	      0.85904359	      0.01250314	      9.97181033	      0.61668022	      3.77453216	     46.92110244	     20.10834166	    -22.88391507	      0.00000000	     45.35952712	      4.55499337	    -15.51628225	      3.06424585	     -7.05092894	      4.57916125	      0.00000000	    -30.45511482	     -3.92656946	     -1.73685021	     80.62448617	     -2.99756271	     68.12498131	    100.05229031	     96.01955166	     76.46196403	      0.27684062	     73.22108643	    116.48578624	     81.55770686
      8.98333330	     11.28318380	      9.04840240	     -2.46774759	      0.52621463	      0.85089633	      0.01266253	     11.89306791	      1.38678963	      4.07451505	     49.70716430	     21.64872676	    -22.63731101	      0.00000000	     45.45633129	      3.77443726	    -14.64182121	      3.81121063	     -7.24893018	      3.50258338	      0.00000000	    -30.82301661	     -3.44214619	     -0.88230904	     81.73927123	     -3.07626244	     69.02727156	     99.98483825	     95.87867910	     77.20216339	      0.18987279	     73.44870286	    116.65378157	     82.04396770
      9.00000000	     11.08562783	      8.61699839	     -2.74184579	      0.52508812	      0.84171699	      0.01182988	     13.72352390	      2.06066489	      4.03138288	     52.27259915	     22.74631075	    -23.06174762	      0.00000000	     45.52389796	      3.38398973	    -14.34313958	      4.12996036	     -7.51697954	      3.38581267	      0.00000000	    -31.45641398	     -3.04668455	     -0.92880896	     82.51279783	     -3.11804766	     68.61534697	     99.84498005	     95.78264100	     78.09046796	     -0.41199727	     72.61476377	    116.42140768	     82.17791264
      9.01666670	     10.28900167	      8.26650892	     -2.96918757	      0.52431602	      0.83515509	      0.01226521	     16.11311691	      2.57388710	      4.03129201	     55.04282778	     24.34424232	    -22.35139680	      0.00000000	     46.22490629	      2.96068710	    -13.73452973	      4.81890898	     -7.45540244	      2.50095319	      0.00000000	    -31.39558885	     -2.66488175	     -1.21940234	     83.07725615	     -2.73604794	     68.16858712	     98.94195868	     95.51456736	     78.90226049	     -1.52266825	     71.82891915	    116.03499323	     82.53074203
